<?xml version="1.0" encoding="UTF-8"?>
<svg xmlns="http://www.w3.org/2000/svg" xmlns:xlink="http://www.w3.org/1999/xlink" width="150pt" height="150pt" viewBox="0 0 150 150" version="1.1">
<g id="surface1">
<path style=" stroke:none;fill-rule:nonzero;fill:rgb(33.72549%,23.921569%,48.627451%);fill-opacity:1;" d="M 0 130.660156 C 0 141.339844 8.660156 150 19.339844 150 L 130.65625 150 C 141.339844 150 150 141.339844 150 130.660156 L 150 19.34375 C 150 8.660156 141.339844 0 130.660156 0 L 19.34375 0 C 8.660156 0 0 8.660156 0 19.339844 Z M 0 130.660156 "/>
<path style=" stroke:none;fill-rule:nonzero;fill:rgb(100%,100%,100%);fill-opacity:1;" d="M 62.203125 66.351562 L 62.203125 45.109375 L 80.898438 45.109375 C 82.679688 45.109375 84.398438 45.257812 86.050781 45.554688 C 87.703125 45.851562 89.167969 46.378906 90.441406 47.144531 C 91.710938 47.90625 92.730469 48.964844 93.492188 50.324219 C 94.253906 51.679688 94.636719 53.417969 94.636719 55.539062 C 94.636719 59.355469 93.492188 62.109375 91.203125 63.804688 C 88.914062 65.503906 85.988281 66.351562 82.425781 66.351562 Z M 42.230469 29.589844 L 42.230469 120.410156 L 86.242188 120.410156 C 90.3125 120.410156 94.277344 119.902344 98.136719 118.882812 C 101.992188 117.867188 105.429688 116.296875 108.4375 114.175781 C 111.449219 112.058594 113.84375 109.324219 115.625 105.972656 C 117.40625 102.625 118.296875 98.660156 118.296875 94.078125 C 118.296875 88.398438 116.917969 83.542969 114.164062 79.515625 C 111.40625 75.488281 107.230469 72.667969 101.632812 71.054688 C 105.703125 69.105469 108.777344 66.605469 110.855469 63.550781 C 112.933594 60.5 113.972656 56.683594 113.972656 52.105469 C 113.972656 47.863281 113.273438 44.300781 111.875 41.417969 C 110.472656 38.535156 108.503906 36.226562 105.957031 34.488281 C 103.414062 32.75 100.363281 31.496094 96.800781 30.734375 C 93.238281 29.972656 89.296875 29.589844 84.96875 29.589844 Z M 62.203125 104.890625 L 62.203125 79.960938 L 83.953125 79.960938 C 88.277344 79.960938 91.753906 80.957031 94.382812 82.949219 C 97.011719 84.941406 98.328125 88.269531 98.328125 92.933594 C 98.328125 95.308594 97.921875 97.257812 97.117188 98.785156 C 96.3125 100.3125 95.230469 101.519531 93.875 102.410156 C 92.519531 103.300781 90.949219 103.9375 89.167969 104.320312 C 87.386719 104.699219 85.523438 104.890625 83.570312 104.890625 Z M 62.203125 104.890625 "/>
</g>
</svg>
