<?xml version="1.0" encoding="UTF-8"?>
<svg xmlns="http://www.w3.org/2000/svg" xmlns:xlink="http://www.w3.org/1999/xlink" width="150pt" height="168pt" viewBox="0 0 150 168" version="1.1">
<g id="surface1">
<path style=" stroke:none;fill-rule:nonzero;fill:rgb(36.078431%,55.294118%,73.72549%);fill-opacity:1;" d="M 149.746094 49.414062 C 149.746094 46.597656 149.140625 44.109375 147.917969 41.972656 C 146.714844 39.871094 144.914062 38.109375 142.5 36.71875 C 122.5625 25.273438 102.605469 13.867188 82.675781 2.410156 C 77.304688 -0.675781 72.09375 -0.5625 66.761719 2.566406 C 58.824219 7.226562 19.097656 29.886719 7.257812 36.710938 C 2.382812 39.519531 0.0078125 43.820312 0.0078125 49.410156 C 0 72.421875 0.0078125 95.433594 0 118.449219 C 0 121.203125 0.582031 123.644531 1.75 125.75 C 2.953125 127.914062 4.78125 129.722656 7.25 131.148438 C 19.089844 137.972656 58.824219 160.628906 66.757812 165.289062 C 72.09375 168.425781 77.304688 168.535156 82.679688 165.445312 C 102.609375 153.992188 122.566406 142.582031 142.503906 131.140625 C 144.976562 129.71875 146.800781 127.90625 148.003906 125.746094 C 149.171875 123.640625 149.753906 121.199219 149.753906 118.441406 C 149.753906 118.441406 149.753906 72.429688 149.746094 49.414062 "/>
<path style=" stroke:none;fill-rule:nonzero;fill:rgb(10.196078%,27.45098%,45.490196%);fill-opacity:1;" d="M 75.105469 83.707031 L 1.75 125.75 C 2.953125 127.914062 4.78125 129.722656 7.25 131.148438 C 19.089844 137.972656 58.824219 160.628906 66.757812 165.289062 C 72.09375 168.425781 77.304688 168.535156 82.679688 165.445312 C 102.609375 153.992188 122.566406 142.582031 142.503906 131.140625 C 144.976562 129.71875 146.800781 127.90625 148.003906 125.746094 L 75.105469 83.707031 "/>
<path style=" stroke:none;fill-rule:nonzero;fill:rgb(10.196078%,27.45098%,45.490196%);fill-opacity:1;" d="M 53.378906 96.160156 C 57.648438 103.578125 65.671875 108.582031 74.878906 108.582031 C 84.140625 108.582031 92.210938 103.515625 96.457031 96.015625 L 75.105469 83.707031 L 53.378906 96.160156 "/>
<path style=" stroke:none;fill-rule:nonzero;fill:rgb(10.588235%,34.901961%,55.686275%);fill-opacity:1;" d="M 149.746094 49.414062 C 149.746094 46.597656 149.140625 44.109375 147.917969 41.972656 L 75.105469 83.707031 L 148.003906 125.746094 C 149.171875 123.640625 149.753906 121.199219 149.753906 118.441406 C 149.753906 118.441406 149.753906 72.429688 149.746094 49.414062 "/>
<path style=" stroke:none;fill-rule:nonzero;fill:rgb(100%,100%,100%);fill-opacity:1;" d="M 145.738281 86.710938 L 140.042969 86.710938 L 140.042969 92.382812 L 134.34375 92.382812 L 134.34375 86.710938 L 128.648438 86.710938 L 128.648438 81.039062 L 134.34375 81.039062 L 134.34375 75.371094 L 140.042969 75.371094 L 140.042969 81.039062 L 145.738281 81.039062 L 145.738281 86.710938 M 124.953125 86.710938 L 119.257812 86.710938 L 119.257812 92.382812 L 113.558594 92.382812 L 113.558594 86.710938 L 107.863281 86.710938 L 107.863281 81.039062 L 113.558594 81.039062 L 113.558594 75.371094 L 119.257812 75.371094 L 119.257812 81.039062 L 124.953125 81.039062 L 124.953125 86.710938 "/>
<path style=" stroke:none;fill-rule:nonzero;fill:rgb(100%,100%,100%);fill-opacity:1;" d="M 96.457031 96.015625 C 92.210938 103.515625 84.140625 108.582031 74.878906 108.582031 C 65.671875 108.582031 57.648438 103.578125 53.378906 96.160156 C 51.234375 92.4375 50.109375 88.21875 50.113281 83.929688 C 50.113281 70.316406 61.199219 59.277344 74.878906 59.277344 C 84.023438 59.277344 92.003906 64.21875 96.296875 71.5625 L 117.941406 59.152344 C 109.335938 44.371094 93.273438 34.425781 74.878906 34.425781 C 47.410156 34.425781 25.144531 56.589844 25.144531 83.929688 C 25.144531 92.898438 27.542969 101.308594 31.734375 108.566406 C 40.3125 123.425781 56.421875 133.433594 74.878906 133.433594 C 93.367188 133.433594 109.5 123.386719 118.070312 108.480469 L 96.457031 96.015625 "/>
</g>
</svg>
