<?xml version="1.0" encoding="UTF-8"?>
<svg xmlns="http://www.w3.org/2000/svg" xmlns:xlink="http://www.w3.org/1999/xlink" width="150pt" height="168pt" viewBox="0 0 150 168" version="1.1">
<g id="surface1">
<path style=" stroke:none;fill-rule:nonzero;fill:rgb(66.27451%,72.54902%,79.607843%);fill-opacity:1;" d="M 149.992188 49.980469 C 149.992188 47.152344 149.382812 44.65625 148.160156 42.515625 C 146.953125 40.410156 145.152344 38.644531 142.730469 37.25 C 122.761719 25.773438 102.773438 14.335938 82.8125 2.851562 C 77.429688 -0.242188 72.210938 -0.128906 66.871094 3.011719 C 58.921875 7.679688 19.125 30.398438 7.269531 37.242188 C 2.386719 40.058594 0.0078125 44.371094 0.0078125 49.972656 C 0 73.046875 0.0078125 96.117188 0 119.191406 C 0 121.953125 0.582031 124.402344 1.753906 126.511719 C 2.957031 128.683594 4.789062 130.496094 7.261719 131.925781 C 19.121094 138.769531 58.921875 161.484375 66.867188 166.15625 C 72.210938 169.296875 77.429688 169.410156 82.8125 166.3125 C 102.777344 154.828125 122.765625 143.390625 142.738281 131.917969 C 145.214844 130.488281 147.042969 128.675781 148.246094 126.507812 C 149.417969 124.394531 150 121.949219 150 119.1875 C 150 119.1875 150 73.050781 149.992188 49.980469 "/>
<path style=" stroke:none;fill-rule:nonzero;fill:rgb(49.803922%,54.509804%,60%);fill-opacity:1;" d="M 82.675781 3.003906 C 77.304688 -0.0859375 72.09375 0.0273438 66.761719 3.160156 C 58.824219 7.820312 19.097656 30.476562 7.257812 37.304688 C 2.382812 40.113281 0.0078125 44.414062 0.0078125 50 C 0 73.015625 0.0078125 96.027344 0 119.039062 C 0 121.796875 0.582031 124.238281 1.75 126.339844 C 2.953125 128.507812 4.78125 130.316406 7.25 131.738281 C 11.183594 134.003906 15.121094 136.261719 19.0625 138.515625 L 128.6875 29.390625 C 113.347656 20.597656 98.003906 11.8125 82.675781 3.003906 "/>
<path style=" stroke:none;fill-rule:nonzero;fill:rgb(100%,100%,100%);fill-opacity:1;" d="M 90.5 74.066406 L 113.84375 74.230469 C 113.84375 64.546875 104 40.835938 75.773438 40.835938 C 57.792969 40.835938 33.617188 52.21875 33.617188 84.9375 C 33.617188 117.660156 57.316406 128.328125 75.773438 128.328125 C 105.667969 128.328125 112.8125 107.738281 112.8125 96.101562 L 90.542969 94.835938 C 90.542969 94.835938 91.136719 108.292969 75.65625 108.292969 C 61.363281 108.292969 58.980469 90.867188 58.980469 84.9375 C 58.980469 75.929688 62.199219 61.464844 75.65625 61.464844 C 89.113281 61.464844 90.5 74.066406 90.5 74.066406 "/>
</g>
</svg>
