<?xml version="1.0" encoding="UTF-8"?>
<svg xmlns="http://www.w3.org/2000/svg" xmlns:xlink="http://www.w3.org/1999/xlink" width="150pt" height="211pt" viewBox="0 0 150 211" version="1.1">
<g id="surface1">
<path style=" stroke:none;fill-rule:nonzero;fill:rgb(14.901961%,30.196078%,89.411765%);fill-opacity:1;" d="M 74.910156 210.46875 L 13.863281 193.5625 L 0.261719 41.363281 L 149.738281 41.363281 L 136.121094 193.539062 Z M 74.910156 210.46875 "/>
<path style=" stroke:none;fill-rule:nonzero;fill:rgb(16.078431%,39.607843%,94.509804%);fill-opacity:1;" d="M 124.464844 183.847656 L 136.101562 53.804688 L 75 53.804688 L 75 197.527344 Z M 124.464844 183.847656 "/>
<path style=" stroke:none;fill-rule:nonzero;fill:rgb(92.156863%,92.156863%,92.156863%);fill-opacity:1;" d="M 31.445312 110.253906 L 33.125 128.921875 L 75 128.921875 L 75 110.253906 Z M 31.445312 110.253906 "/>
<path style=" stroke:none;fill-rule:nonzero;fill:rgb(92.156863%,92.156863%,92.156863%);fill-opacity:1;" d="M 28.078125 72.472656 L 29.777344 91.140625 L 75 91.140625 L 75 72.472656 Z M 28.078125 72.472656 "/>
<path style=" stroke:none;fill-rule:nonzero;fill:rgb(92.156863%,92.156863%,92.156863%);fill-opacity:1;" d="M 75 158.734375 L 74.917969 158.757812 L 54.078125 153.144531 L 52.746094 138.253906 L 33.960938 138.253906 L 36.582031 167.566406 L 74.914062 178.179688 L 75 178.15625 Z M 75 158.734375 "/>
<path style=" stroke:none;fill-rule:nonzero;fill:rgb(0%,0%,0%);fill-opacity:1;" d="M 35.441406 0 L 58.105469 0 L 58.105469 9.453125 L 44.917969 9.453125 L 44.917969 18.910156 L 58.105469 18.910156 L 58.105469 28.363281 L 35.441406 28.363281 Z M 35.441406 0 "/>
<path style=" stroke:none;fill-rule:nonzero;fill:rgb(0%,0%,0%);fill-opacity:1;" d="M 62.636719 0 L 85.300781 0 L 85.300781 8.222656 L 72.117188 8.222656 L 72.117188 9.867188 L 85.300781 9.867188 L 85.300781 28.773438 L 62.636719 28.773438 L 62.636719 20.140625 L 75.824219 20.140625 L 75.824219 18.5 L 62.636719 18.5 Z M 62.636719 0 "/>
<path style=" stroke:none;fill-rule:nonzero;fill:rgb(0%,0%,0%);fill-opacity:1;" d="M 89.835938 0 L 112.5 0 L 112.5 8.222656 L 99.3125 8.222656 L 99.3125 9.867188 L 112.5 9.867188 L 112.5 28.773438 L 89.835938 28.773438 L 89.835938 20.140625 L 103.023438 20.140625 L 103.023438 18.5 L 89.835938 18.5 Z M 89.835938 0 "/>
<path style=" stroke:none;fill-rule:nonzero;fill:rgb(100%,100%,100%);fill-opacity:1;" d="M 118.433594 110.253906 L 121.8125 72.472656 L 74.933594 72.472656 L 74.933594 91.140625 L 101.304688 91.140625 L 99.601562 110.253906 L 74.933594 110.253906 L 74.933594 128.921875 L 97.976562 128.921875 L 95.804688 153.132812 L 74.933594 158.75 L 74.933594 178.171875 L 113.296875 167.566406 L 113.578125 164.410156 L 117.976562 115.269531 Z M 118.433594 110.253906 "/>
</g>
</svg>
