<?xml version="1.0" encoding="UTF-8"?>
<svg xmlns="http://www.w3.org/2000/svg" xmlns:xlink="http://www.w3.org/1999/xlink" width="150pt" height="152pt" viewBox="0 0 150 152" version="1.1">
<defs>
<clipPath id="clip1">
  <path d="M 51 112 L 99 112 L 99 132 L 51 132 Z M 51 112 "/>
</clipPath>
<clipPath id="clip2">
  <path d="M 57.480469 143.140625 C 58.417969 147.527344 60.703125 150.097656 62.988281 151.621094 L 87.070312 151.621094 C 90 149.632812 92.988281 145.890625 92.988281 138.871094 L 92.988281 120.746094 C 92.988281 120.746094 93.339844 116.242188 97.5 114.78125 C 97.5 114.78125 99.902344 113.085938 97.324219 112.148438 C 97.324219 112.148438 85.898438 111.214844 85.898438 120.570312 L 85.898438 134.371094 C 85.898438 134.371094 86.367188 139.457031 83.671875 141.5625 L 83.671875 124.488281 C 83.671875 124.488281 83.847656 119.050781 86.660156 117.003906 C 86.660156 117.003906 88.535156 113.671875 84.433594 114.546875 C 84.433594 114.546875 76.582031 115.660156 76.230469 124.839844 L 76.054688 142.378906 L 74.179688 142.378906 L 74.003906 124.839844 C 73.652344 115.71875 65.800781 114.546875 65.800781 114.546875 C 61.699219 113.613281 63.574219 117.003906 63.574219 117.003906 C 66.386719 119.050781 66.5625 124.488281 66.5625 124.488281 L 66.5625 141.738281 C 63.867188 139.808594 64.335938 134.371094 64.335938 134.371094 L 64.335938 120.570312 C 64.335938 111.214844 52.910156 112.148438 52.910156 112.148438 C 50.273438 113.085938 52.734375 114.78125 52.734375 114.78125 C 56.835938 116.300781 57.246094 120.746094 57.246094 120.746094 L 57.246094 133.433594 Z M 57.480469 143.140625 "/>
</clipPath>
</defs>
<g id="surface1">
<path style=" stroke:none;fill-rule:nonzero;fill:rgb(61.960784%,86.27451%,94.901961%);fill-opacity:1;" d="M 117.714844 116.828125 C 117.714844 124.957031 98.847656 131.503906 75.585938 131.503906 C 52.324219 131.503906 33.457031 124.898438 33.457031 116.828125 C 33.457031 108.699219 52.324219 102.152344 75.585938 102.152344 C 98.847656 102.152344 117.714844 108.699219 117.714844 116.828125 Z M 117.714844 116.828125 "/>
<g clip-path="url(#clip1)" clip-rule="nonzero">
<g clip-path="url(#clip2)" clip-rule="nonzero">
<path style=" stroke:none;fill-rule:nonzero;fill:rgb(49.019608%,73.72549%,90.588235%);fill-opacity:1;" d="M 117.714844 116.828125 C 117.714844 124.957031 98.847656 131.503906 75.585938 131.503906 C 52.324219 131.503906 33.457031 124.898438 33.457031 116.828125 C 33.457031 108.699219 52.324219 102.152344 75.585938 102.152344 C 98.847656 102.152344 117.714844 108.699219 117.714844 116.828125 Z M 117.714844 116.828125 "/>
</g>
</g>
<path style=" stroke:none;fill-rule:nonzero;fill:rgb(61.960784%,86.27451%,94.901961%);fill-opacity:1;" d="M 27.480469 73.617188 L 26.25 77.828125 C 26.25 77.828125 25.957031 79.347656 27.363281 79.640625 C 28.886719 79.582031 28.769531 78.175781 28.652344 77.769531 Z M 27.480469 73.617188 "/>
<path style=" stroke:none;fill-rule:nonzero;fill:rgb(0.392157%,0.392157%,0.392157%);fill-opacity:1;" d="M 149.882812 55.898438 L 150 55.375 C 137.636719 52.917969 124.980469 52.859375 117.304688 53.210938 C 118.535156 48.707031 118.945312 43.445312 118.945312 37.65625 C 118.945312 29.292969 115.78125 22.628906 110.742188 17.601562 C 111.621094 14.734375 112.792969 8.363281 109.570312 0.234375 C 109.570312 0.234375 103.828125 -1.578125 90.761719 7.132812 C 85.664062 5.847656 80.214844 5.203125 74.765625 5.203125 C 68.789062 5.203125 62.753906 5.964844 57.070312 7.484375 C 43.59375 -1.695312 37.675781 0.175781 37.675781 0.175781 C 33.808594 9.824219 36.210938 17.015625 36.914062 18.769531 C 32.34375 23.679688 29.589844 29.9375 29.589844 37.597656 C 29.589844 43.386719 30.234375 48.589844 31.875 53.09375 C 24.140625 52.800781 11.953125 52.917969 0 55.316406 L 0.117188 55.839844 C 12.070312 53.445312 24.375 53.386719 32.050781 53.679688 C 32.402344 54.613281 32.8125 55.550781 33.222656 56.425781 C 25.605469 56.660156 12.65625 57.652344 0.234375 61.164062 L 0.410156 61.6875 C 12.949219 58.179688 26.015625 57.246094 33.574219 57.011719 C 38.144531 65.429688 47.050781 70.925781 62.988281 72.621094 C 60.703125 74.144531 58.417969 76.714844 57.480469 81.101562 C 54.375 82.5625 44.648438 86.1875 38.789062 76.132812 C 38.789062 76.132812 35.507812 70.167969 29.238281 69.699219 C 29.238281 69.699219 23.144531 69.582031 28.828125 73.5 C 28.828125 73.5 32.871094 75.429688 35.683594 82.621094 C 35.683594 82.621094 39.375 94.902344 57.011719 90.925781 L 57.011719 103.496094 C 57.011719 103.496094 56.660156 108 52.5 109.460938 C 52.5 109.460938 50.039062 111.15625 52.675781 112.089844 C 52.675781 112.089844 64.101562 113.027344 64.101562 103.671875 L 64.101562 89.871094 C 64.101562 89.871094 63.632812 84.375 66.328125 82.503906 L 66.328125 105.191406 C 66.328125 105.191406 66.152344 110.628906 63.339844 112.675781 C 63.339844 112.675781 61.464844 116.007812 65.566406 115.132812 C 65.566406 115.132812 73.417969 114.019531 73.769531 104.839844 L 73.945312 81.863281 L 75.820312 81.863281 L 75.996094 104.839844 C 76.347656 113.964844 84.199219 115.132812 84.199219 115.132812 C 88.300781 116.066406 86.425781 112.675781 86.425781 112.675781 C 83.613281 110.628906 83.4375 105.191406 83.4375 105.191406 L 83.4375 82.679688 C 86.132812 84.785156 85.664062 89.871094 85.664062 89.871094 L 85.664062 103.671875 C 85.664062 113.027344 97.089844 112.089844 97.089844 112.089844 C 99.726562 111.15625 97.265625 109.460938 97.265625 109.460938 C 93.164062 107.941406 92.753906 103.496094 92.753906 103.496094 L 92.753906 85.371094 C 92.753906 78.292969 89.765625 74.550781 86.835938 72.621094 C 103.828125 70.925781 111.972656 65.488281 115.722656 56.953125 C 123.164062 57.128906 136.582031 58.0625 149.355469 61.6875 L 149.53125 61.164062 C 136.816406 57.59375 123.515625 56.660156 115.957031 56.425781 C 116.308594 55.550781 116.601562 54.671875 116.894531 53.734375 C 124.746094 53.445312 137.460938 53.445312 149.882812 55.898438 Z M 149.882812 55.898438 "/>
<path style=" stroke:none;fill-rule:nonzero;fill:rgb(96.078431%,80%,70.196078%);fill-opacity:1;" d="M 102.304688 37.246094 C 105.9375 40.578125 108.105469 44.554688 108.105469 48.824219 C 108.105469 68.9375 93.105469 69.464844 74.589844 69.464844 C 56.074219 69.464844 41.074219 66.660156 41.074219 48.824219 C 41.074219 44.554688 43.183594 40.578125 46.816406 37.304688 C 52.851562 31.808594 63.046875 34.734375 74.589844 34.734375 C 86.132812 34.734375 96.269531 31.75 102.304688 37.246094 Z M 102.304688 37.246094 "/>
<path style=" stroke:none;fill-rule:nonzero;fill:rgb(100%,100%,100%);fill-opacity:1;" d="M 63.457031 49.878906 C 63.457031 55.433594 60.351562 59.875 56.484375 59.875 C 52.617188 59.875 49.511719 55.375 49.511719 49.878906 C 49.511719 44.320312 52.617188 39.878906 56.484375 39.878906 C 60.351562 39.820312 63.457031 44.320312 63.457031 49.878906 Z M 63.457031 49.878906 "/>
<path style=" stroke:none;fill-rule:nonzero;fill:rgb(68.627451%,36.078431%,31.764706%);fill-opacity:1;" d="M 61.230469 49.992188 C 61.230469 53.679688 59.121094 56.660156 56.601562 56.660156 C 54.023438 56.660156 51.972656 53.679688 51.972656 49.992188 C 51.972656 46.308594 54.082031 43.328125 56.601562 43.328125 C 59.121094 43.328125 61.230469 46.308594 61.230469 49.992188 Z M 61.230469 49.992188 "/>
<path style=" stroke:none;fill-rule:nonzero;fill:rgb(100%,100%,100%);fill-opacity:1;" d="M 100.898438 49.878906 C 100.898438 55.433594 97.792969 59.875 93.925781 59.875 C 90.058594 59.875 86.953125 55.375 86.953125 49.878906 C 86.953125 44.320312 90.058594 39.878906 93.925781 39.878906 C 97.734375 39.820312 100.898438 44.320312 100.898438 49.878906 Z M 100.898438 49.878906 "/>
<path style=" stroke:none;fill-rule:nonzero;fill:rgb(68.627451%,36.078431%,31.764706%);fill-opacity:1;" d="M 98.613281 49.992188 C 98.613281 53.679688 96.503906 56.660156 93.984375 56.660156 C 91.40625 56.660156 89.355469 53.679688 89.355469 49.992188 C 89.355469 46.308594 91.464844 43.328125 93.984375 43.328125 C 96.5625 43.328125 98.613281 46.308594 98.613281 49.992188 Z M 76.464844 58.765625 C 76.464844 59.699219 75.703125 60.519531 74.707031 60.519531 C 73.769531 60.519531 72.949219 59.757812 72.949219 58.765625 C 72.949219 57.769531 73.710938 57.011719 74.707031 57.011719 C 75.644531 57.011719 76.464844 57.769531 76.464844 58.765625 Z M 70.664062 63.148438 C 70.546875 62.859375 70.722656 62.566406 71.015625 62.449219 C 71.308594 62.332031 71.601562 62.507812 71.71875 62.800781 C 72.1875 64.085938 73.359375 64.90625 74.707031 64.90625 C 76.054688 64.90625 77.226562 64.027344 77.695312 62.800781 C 77.8125 62.507812 78.105469 62.332031 78.398438 62.449219 C 78.691406 62.566406 78.867188 62.859375 78.75 63.148438 C 78.164062 64.847656 76.523438 66.015625 74.707031 66.015625 C 72.890625 66.015625 71.25 64.847656 70.664062 63.148438 Z M 70.664062 63.148438 "/>
<path style=" stroke:none;fill-rule:nonzero;fill:rgb(76.862745%,89.803922%,85.098039%);fill-opacity:1;" d="M 31.933594 71.101562 C 31.933594 71.570312 31.40625 71.921875 30.703125 71.921875 C 30.058594 71.921875 29.472656 71.570312 29.472656 71.101562 C 29.472656 70.636719 30 70.285156 30.703125 70.285156 C 31.40625 70.285156 31.933594 70.636719 31.933594 71.101562 Z M 35.332031 72.972656 C 35.332031 73.441406 34.804688 73.792969 34.101562 73.792969 C 33.457031 73.792969 32.871094 73.441406 32.871094 72.972656 C 32.871094 72.507812 33.398438 72.15625 34.101562 72.15625 C 34.804688 72.15625 35.332031 72.507812 35.332031 72.972656 Z M 37.382812 75.429688 C 37.382812 75.898438 36.855469 76.25 36.152344 76.25 C 35.507812 76.25 34.921875 75.898438 34.921875 75.429688 C 34.921875 74.960938 35.449219 74.609375 36.152344 74.609375 C 36.855469 74.550781 37.382812 74.960938 37.382812 75.429688 Z M 39.257812 78.234375 C 39.257812 78.703125 38.730469 79.054688 38.027344 79.054688 C 37.382812 79.054688 36.796875 78.703125 36.796875 78.234375 C 36.796875 77.769531 37.324219 77.417969 38.027344 77.417969 C 38.730469 77.359375 39.257812 77.769531 39.257812 78.234375 Z M 41.308594 80.808594 C 41.308594 81.277344 40.78125 81.628906 40.078125 81.628906 C 39.433594 81.628906 38.847656 81.277344 38.847656 80.808594 C 38.847656 80.339844 39.375 79.992188 40.078125 79.992188 C 40.78125 79.992188 41.308594 80.339844 41.308594 80.808594 Z M 44.121094 83.089844 C 44.121094 83.558594 43.59375 83.90625 42.890625 83.90625 C 42.246094 83.90625 41.660156 83.558594 41.660156 83.089844 C 41.660156 82.621094 42.1875 82.269531 42.890625 82.269531 C 43.59375 82.210938 44.121094 82.621094 44.121094 83.089844 Z M 48.046875 84.550781 C 48.046875 85.019531 47.519531 85.371094 46.816406 85.371094 C 46.171875 85.371094 45.585938 85.019531 45.585938 84.550781 C 45.585938 84.082031 46.113281 83.734375 46.816406 83.734375 C 47.519531 83.734375 48.046875 84.082031 48.046875 84.550781 Z M 51.972656 84.550781 C 51.972656 85.019531 51.445312 85.371094 50.742188 85.371094 C 50.097656 85.371094 49.511719 85.019531 49.511719 84.550781 C 49.511719 84.082031 50.039062 83.734375 50.742188 83.734375 C 51.445312 83.734375 51.972656 84.082031 51.972656 84.550781 Z M 55.957031 83.90625 C 55.957031 84.375 55.429688 84.726562 54.726562 84.726562 C 54.082031 84.726562 53.496094 84.375 53.496094 83.90625 C 53.496094 83.441406 54.023438 83.089844 54.726562 83.089844 C 55.371094 83.089844 55.957031 83.441406 55.957031 83.90625 Z M 55.957031 83.90625 "/>
</g>
</svg>
