<?xml version="1.0" encoding="UTF-8"?>
<svg xmlns="http://www.w3.org/2000/svg" xmlns:xlink="http://www.w3.org/1999/xlink" width="150pt" height="211pt" viewBox="0 0 150 211" version="1.1">
<g id="surface1">
<path style=" stroke:none;fill-rule:nonzero;fill:rgb(89.411765%,30.196078%,14.901961%);fill-opacity:1;" d="M 149.738281 41.363281 L 136.121094 193.539062 L 74.910156 210.46875 L 13.863281 193.5625 L 0.261719 41.363281 Z M 149.738281 41.363281 "/>
<path style=" stroke:none;fill-rule:nonzero;fill:rgb(94.509804%,39.607843%,16.078431%);fill-opacity:1;" d="M 75 197.527344 L 124.464844 183.847656 L 136.101562 53.804688 L 75 53.804688 Z M 75 197.527344 "/>
<path style=" stroke:none;fill-rule:nonzero;fill:rgb(92.156863%,92.156863%,92.156863%);fill-opacity:1;" d="M 48.527344 91.140625 L 75 91.140625 L 75 72.472656 L 28.078125 72.472656 L 28.523438 77.480469 L 33.125 128.921875 L 75 128.921875 L 75 110.253906 L 50.238281 110.253906 Z M 48.527344 91.140625 "/>
<path style=" stroke:none;fill-rule:nonzero;fill:rgb(92.156863%,92.156863%,92.156863%);fill-opacity:1;" d="M 52.746094 138.253906 L 33.960938 138.253906 L 36.582031 167.566406 L 74.914062 178.179688 L 75 178.15625 L 75 158.734375 L 74.917969 158.757812 L 54.078125 153.144531 Z M 52.746094 138.253906 "/>
<path style=" stroke:none;fill-rule:nonzero;fill:rgb(0%,0%,0%);fill-opacity:1;" d="M 14.167969 0 L 23.679688 0 L 23.679688 9.371094 L 32.378906 9.371094 L 32.378906 0 L 41.886719 0 L 41.886719 28.382812 L 32.378906 28.382812 L 32.378906 18.878906 L 23.679688 18.878906 L 23.679688 28.382812 L 14.167969 28.382812 Z M 14.167969 0 "/>
<path style=" stroke:none;fill-rule:nonzero;fill:rgb(0%,0%,0%);fill-opacity:1;" d="M 54.394531 9.410156 L 46.019531 9.410156 L 46.019531 0 L 72.28125 0 L 72.28125 9.410156 L 63.902344 9.410156 L 63.902344 28.382812 L 54.394531 28.382812 Z M 54.394531 9.410156 "/>
<path style=" stroke:none;fill-rule:nonzero;fill:rgb(0%,0%,0%);fill-opacity:1;" d="M 76.445312 0 L 86.363281 0 L 92.460938 9.972656 L 98.554688 0 L 108.476562 0 L 108.476562 28.382812 L 99.003906 28.382812 L 99.003906 14.3125 L 92.460938 24.40625 L 92.300781 24.40625 L 85.75 14.3125 L 85.75 28.382812 L 76.445312 28.382812 Z M 76.445312 0 "/>
<path style=" stroke:none;fill-rule:nonzero;fill:rgb(0%,0%,0%);fill-opacity:1;" d="M 113.207031 0 L 122.722656 0 L 122.722656 19 L 136.09375 19 L 136.09375 28.382812 L 113.207031 28.382812 Z M 113.207031 0 "/>
<path style=" stroke:none;fill-rule:nonzero;fill:rgb(100%,100%,100%);fill-opacity:1;" d="M 74.933594 128.921875 L 97.976562 128.921875 L 95.804688 153.132812 L 74.933594 158.75 L 74.933594 178.171875 L 113.296875 167.566406 L 113.578125 164.410156 L 117.976562 115.269531 L 118.433594 110.253906 L 74.933594 110.253906 Z M 74.933594 128.921875 "/>
<path style=" stroke:none;fill-rule:nonzero;fill:rgb(100%,100%,100%);fill-opacity:1;" d="M 74.933594 91.09375 L 74.933594 91.140625 L 120.136719 91.140625 L 120.511719 86.945312 L 121.363281 77.480469 L 121.8125 72.472656 L 74.933594 72.472656 Z M 74.933594 91.09375 "/>
</g>
</svg>
