<?xml version="1.0" encoding="UTF-8"?>
<svg xmlns="http://www.w3.org/2000/svg" xmlns:xlink="http://www.w3.org/1999/xlink" width="150pt" height="211pt" viewBox="0 0 150 211" version="1.1">
<g id="surface1">
<path style=" stroke:none;fill-rule:nonzero;fill:rgb(90.196078%,63.921569%,16.078431%);fill-opacity:1;" d="M 150 41.347656 L 0 41.347656 L 14.0625 193.730469 L 74.992188 211 L 135.921875 193.730469 Z M 150 41.347656 "/>
<path style=" stroke:none;fill-rule:nonzero;fill:rgb(94.509804%,74.901961%,13.333333%);fill-opacity:1;" d="M 74.992188 53.761719 L 74.992188 198.085938 L 124.359375 184.109375 L 136.367188 53.761719 Z M 74.992188 53.761719 "/>
<path style=" stroke:none;fill-rule:nonzero;fill:rgb(100%,100%,100%);fill-opacity:1;" d="M 114.265625 72.457031 L 38.363281 72.457031 L 33.074219 129.511719 L 33.183594 129.15625 L 97.667969 129.15625 L 95.566406 153.296875 L 74.992188 159.210938 L 54.113281 153.203125 L 52.863281 138.59375 L 33.910156 138.59375 L 36.613281 167.789062 L 74.992188 178.675781 L 113.386719 167.789062 L 118.675781 110.488281 L 50.238281 110.488281 L 51.113281 91.398438 L 98.597656 91.398438 L 99.308594 102.335938 L 118.429688 102.335938 Z M 114.265625 72.457031 "/>
<path style=" stroke:none;fill-rule:nonzero;fill:rgb(92.156863%,92.156863%,92.156863%);fill-opacity:1;" d="M 75.007812 72.457031 L 38.363281 72.457031 L 33.074219 129.511719 L 33.183594 129.15625 L 75.007812 129.15625 L 75.007812 110.546875 L 52.90625 110.546875 L 53.785156 91.457031 L 75.007812 91.457031 Z M 52.90625 138.59375 L 33.910156 138.59375 L 36.613281 167.769531 L 74.992188 178.640625 L 74.992188 159.230469 L 54.113281 153.203125 Z M 52.90625 138.59375 "/>
<path style=" stroke:none;fill-rule:nonzero;fill:rgb(13.72549%,12.156863%,12.54902%);fill-opacity:1;" d="M 60.40625 18.871094 L 47.050781 18.871094 L 47.050781 28.453125 L 69.957031 28.453125 L 69.957031 0 L 60.40625 0 Z M 102.9375 0.152344 L 79.664062 0.152344 L 79.664062 10.109375 C 82.769531 13.21875 84.390625 14.710938 88.96875 19.210938 L 79.664062 19.210938 L 79.664062 28.289062 L 102.9375 28.289062 L 102.9375 19.226562 L 93.632812 10.128906 L 102.9375 10.128906 Z M 102.9375 0.152344 "/>
</g>
</svg>
