<?xml version="1.0" encoding="UTF-8"?>
<svg xmlns="http://www.w3.org/2000/svg" xmlns:xlink="http://www.w3.org/1999/xlink" width="150pt" height="52pt" viewBox="0 0 150 52" version="1.1">
<g id="surface1">
<path style=" stroke:none;fill-rule:nonzero;fill:rgb(80%,0%,0%);fill-opacity:1;" d="M 130.5625 45.238281 L 130.5625 52 L 142.953125 52 C 145.492188 52 149.847656 50.167969 150 45.050781 L 150 42.4375 C 150 38.066406 146.363281 35.488281 142.953125 35.488281 L 136.777344 35.488281 L 136.777344 32.351562 L 149.015625 32.351562 L 149.015625 25.550781 L 137.269531 25.550781 C 134.238281 25.550781 130.183594 28.015625 130.183594 32.613281 L 130.183594 34.964844 C 130.183594 39.558594 134.199219 41.914062 137.269531 41.914062 C 145.792969 41.949219 135.222656 41.914062 143.105469 41.914062 L 143.105469 45.199219 M 64.183594 43.59375 C 64.183594 43.59375 70.8125 43.035156 70.8125 34.59375 C 70.8125 26.148438 62.78125 25.363281 62.78125 25.363281 L 48.308594 25.363281 L 48.308594 52 L 55.582031 52 L 55.582031 45.574219 L 61.871094 52 L 72.632812 52 Z M 61.378906 38.140625 L 55.582031 38.140625 L 55.582031 32.050781 L 61.417969 32.050781 C 61.417969 32.050781 63.046875 32.648438 63.046875 35.078125 C 63.046875 37.503906 61.378906 38.140625 61.378906 38.140625 Z M 88.773438 25.550781 L 81.382812 25.550781 C 76.117188 25.550781 74.335938 30.257812 74.335938 32.5 L 74.335938 52 L 81.726562 52 L 81.726562 47.332031 L 88.660156 47.332031 L 88.660156 52 L 95.820312 52 L 95.820312 32.5 C 95.820312 26.820312 90.589844 25.550781 88.773438 25.550781 Z M 88.660156 39.785156 L 81.6875 39.785156 L 81.6875 33.320312 C 81.6875 33.320312 81.6875 31.863281 84 31.863281 L 86.535156 31.863281 C 88.582031 31.863281 88.621094 33.320312 88.621094 33.320312 L 88.621094 39.785156 Z M 99.191406 25.550781 L 106.882812 25.550781 L 106.882812 52 L 99.191406 52 Z M 117.679688 45.164062 L 117.679688 25.550781 L 110.027344 25.550781 L 110.027344 52 L 128.023438 52 L 128.023438 45.164062 Z M 117.679688 45.164062 "/>
<path style=" stroke:none;fill-rule:nonzero;fill:rgb(80%,0%,0%);fill-opacity:1;" d="M 2.652344 52 L 32.585938 52 C 32.585938 52 26.863281 26.261719 45.808594 15.839844 C 49.9375 13.859375 63.085938 6.460938 84.605469 22.152344 C 85.285156 21.59375 85.929688 21.144531 85.929688 21.144531 C 85.929688 21.144531 66.230469 1.753906 44.292969 3.921875 C 33.265625 4.894531 19.703125 14.792969 11.746094 27.867188 C 3.789062 40.941406 2.652344 52 2.652344 52 Z M 2.652344 52 "/>
<path style=" stroke:none;fill-rule:nonzero;fill:rgb(80%,0%,0%);fill-opacity:1;" d="M 2.652344 52 L 32.585938 52 C 32.585938 52 26.863281 26.261719 45.808594 15.839844 C 49.9375 13.859375 63.085938 6.460938 84.605469 22.152344 C 85.285156 21.59375 85.929688 21.144531 85.929688 21.144531 C 85.929688 21.144531 66.230469 1.753906 44.292969 3.921875 C 33.265625 4.894531 19.703125 14.792969 11.746094 27.867188 C 3.789062 40.941406 2.652344 52 2.652344 52 Z M 2.652344 52 "/>
<path style=" stroke:none;fill-rule:nonzero;fill:rgb(80%,0%,0%);fill-opacity:1;" d="M 2.652344 52 L 32.585938 52 C 32.585938 52 26.863281 26.261719 45.808594 15.839844 C 49.9375 13.859375 63.085938 6.460938 84.605469 22.152344 C 85.285156 21.59375 85.929688 21.144531 85.929688 21.144531 C 85.929688 21.144531 66.230469 1.753906 44.292969 3.921875 C 33.230469 4.894531 19.664062 14.792969 11.707031 27.867188 C 3.75 40.941406 2.652344 52 2.652344 52 Z M 65.015625 6.015625 L 65.167969 3.511719 C 64.828125 3.324219 63.878906 2.875 61.492188 2.203125 L 61.339844 4.667969 C 62.589844 5.082031 63.804688 5.527344 65.015625 6.015625 Z M 65.015625 6.015625 "/>
<path style=" stroke:none;fill-rule:nonzero;fill:rgb(80%,0%,0%);fill-opacity:1;" d="M 61.417969 13.933594 L 61.265625 16.289062 C 62.515625 16.324219 63.765625 16.472656 65.015625 16.734375 L 65.167969 14.417969 C 63.878906 14.15625 62.628906 14.007812 61.417969 13.933594 Z M 47.398438 2.277344 L 47.777344 2.277344 L 47.019531 0 C 45.84375 0 44.632812 0.0742188 43.382812 0.222656 L 44.101562 2.429688 C 45.199219 2.316406 46.300781 2.277344 47.398438 2.277344 Z M 49.21875 16.027344 L 50.089844 18.601562 C 51.1875 18.082031 52.285156 17.632812 53.386719 17.296875 L 52.550781 14.832031 C 51.261719 15.203125 50.164062 15.613281 49.21875 16.027344 Z M 32.015625 6.199219 L 30.3125 3.625 C 29.363281 4.109375 28.378906 4.632812 27.355469 5.230469 L 29.097656 7.84375 C 30.082031 7.246094 31.03125 6.6875 32.015625 6.199219 Z M 39.78125 23.011719 L 41.601562 25.699219 C 42.246094 24.765625 43.003906 23.90625 43.835938 23.050781 L 42.132812 20.507812 C 41.261719 21.292969 40.464844 22.152344 39.78125 23.011719 Z M 34.289062 35.039062 L 37.359375 37.429688 C 37.511719 35.972656 37.773438 34.515625 38.152344 33.058594 L 35.425781 30.929688 C 34.933594 32.3125 34.59375 33.695312 34.289062 35.039062 Z M 17.695312 17.296875 L 15.003906 14.980469 C 14.019531 15.914062 13.070312 16.847656 12.199219 17.78125 L 15.117188 20.246094 C 15.914062 19.238281 16.785156 18.230469 17.695312 17.296875 Z M 6.253906 33.996094 L 1.894531 32.425781 C 1.175781 34.03125 0.378906 35.898438 0 36.90625 L 4.359375 38.476562 C 4.851562 37.207031 5.644531 35.375 6.253906 33.996094 Z M 33.722656 44.527344 C 33.796875 46.507812 33.984375 48.113281 34.175781 49.234375 L 38.722656 50.84375 C 38.382812 49.386719 38.039062 47.742188 37.8125 45.984375 Z M 33.722656 44.527344 "/>
</g>
</svg>
