<?xml version="1.0" encoding="UTF-8"?>
<svg xmlns="http://www.w3.org/2000/svg" xmlns:xlink="http://www.w3.org/1999/xlink" width="150pt" height="134pt" viewBox="0 0 150 134" version="1.1">
<g id="surface1">
<path style=" stroke:none;fill-rule:nonzero;fill:rgb(100%,100%,100%);fill-opacity:1;" d="M 0.441406 66.855469 C 0.441406 78.050781 11.433594 88.5 28.765625 94.390625 C 25.304688 111.714844 28.148438 125.679688 37.636719 131.121094 C 47.386719 136.714844 61.917969 132.84375 75.707031 120.855469 C 89.148438 132.359375 102.734375 136.886719 112.214844 131.429688 C 121.960938 125.820312 124.921875 110.910156 121.367188 93.042969 C 139.417969 87.109375 149.515625 78.195312 149.515625 66.855469 C 149.515625 55.917969 138.503906 46.460938 121.402344 40.605469 C 125.234375 22.003906 121.988281 8.375 112.109375 2.710938 C 102.582031 -2.75 88.835938 2.007812 75.195312 13.8125 C 61.007812 1.285156 47.398438 -2.539062 37.527344 3.140625 C 28.011719 8.621094 25.292969 22.839844 28.765625 40.484375 C 12.019531 46.289062 0.441406 55.964844 0.441406 66.855469 Z M 0.441406 66.855469 "/>
<path style=" stroke:none;fill-rule:nonzero;fill:rgb(32.54902%,75.686275%,87.058824%);fill-opacity:1;" d="M 117.78125 46.417969 C 116.375 45.9375 114.953125 45.492188 113.519531 45.082031 C 113.757812 44.125 113.976562 43.160156 114.179688 42.191406 C 117.40625 26.621094 115.296875 14.078125 108.09375 9.945312 C 101.1875 5.984375 89.890625 10.117188 78.484375 19.988281 C 77.359375 20.960938 76.261719 21.964844 75.1875 22.996094 C 74.46875 22.308594 73.738281 21.636719 72.996094 20.980469 C 61.039062 10.425781 49.054688 5.976562 41.859375 10.117188 C 34.960938 14.089844 32.914062 25.882812 35.820312 40.640625 C 36.109375 42.101562 36.4375 43.558594 36.800781 45 C 35.101562 45.480469 33.464844 45.992188 31.898438 46.535156 C 17.882812 51.394531 8.929688 59.007812 8.929688 66.90625 C 8.929688 75.066406 18.539062 83.25 33.140625 88.210938 C 34.324219 88.613281 35.515625 88.984375 36.71875 89.324219 C 36.328125 90.882812 35.980469 92.449219 35.679688 94.023438 C 32.910156 108.527344 35.074219 120.039062 41.953125 123.988281 C 49.0625 128.0625 60.992188 123.875 72.609375 113.777344 C 73.527344 112.976562 74.449219 112.132812 75.371094 111.246094 C 76.53125 112.359375 77.726562 113.441406 78.949219 114.492188 C 90.203125 124.117188 101.3125 128.007812 108.1875 124.050781 C 115.289062 119.960938 117.597656 107.59375 114.601562 92.542969 C 114.375 91.394531 114.105469 90.21875 113.808594 89.023438 C 114.644531 88.777344 115.46875 88.523438 116.269531 88.257812 C 131.445312 83.257812 141.320312 75.175781 141.320312 66.90625 C 141.320312 58.980469 132.082031 51.3125 117.78125 46.417969 Z M 117.78125 46.417969 "/>
<path style=" stroke:none;fill-rule:nonzero;fill:rgb(100%,100%,100%);fill-opacity:1;" d="M 114.492188 82.921875 C 113.765625 83.160156 113.023438 83.390625 112.265625 83.613281 C 110.589844 78.339844 108.328125 72.730469 105.5625 66.9375 C 108.203125 61.277344 110.378906 55.742188 112.007812 50.5 C 113.359375 50.890625 114.675781 51.304688 115.941406 51.738281 C 128.195312 55.929688 135.667969 62.128906 135.667969 66.90625 C 135.667969 71.996094 127.59375 78.605469 114.492188 82.921875 Z M 109.054688 93.636719 C 110.378906 100.289062 110.566406 106.304688 109.691406 111.007812 C 108.902344 115.234375 107.316406 118.054688 105.355469 119.183594 C 101.183594 121.582031 92.261719 118.460938 82.636719 110.226562 C 81.535156 109.285156 80.421875 108.277344 79.308594 107.210938 C 83.039062 103.152344 86.769531 98.4375 90.40625 93.199219 C 96.808594 92.632812 102.855469 91.710938 108.335938 90.449219 C 108.605469 91.535156 108.847656 92.597656 109.054688 93.636719 Z M 54.066406 118.765625 C 49.988281 120.199219 46.742188 120.238281 44.78125 119.113281 C 40.605469 116.71875 38.867188 107.472656 41.238281 95.074219 C 41.519531 93.609375 41.839844 92.148438 42.203125 90.703125 C 47.625 91.894531 53.628906 92.753906 60.042969 93.269531 C 63.707031 98.394531 67.542969 103.105469 71.410156 107.230469 C 70.585938 108.023438 69.746094 108.792969 68.886719 109.542969 C 63.75 114.007812 58.601562 117.171875 54.066406 118.765625 Z M 34.96875 82.890625 C 28.511719 80.695312 23.183594 77.84375 19.527344 74.734375 C 16.246094 71.9375 14.585938 69.160156 14.585938 66.90625 C 14.585938 62.113281 21.773438 56 33.761719 51.84375 C 35.265625 51.324219 36.785156 50.851562 38.316406 50.417969 C 39.972656 55.777344 42.148438 61.378906 44.769531 67.042969 C 42.113281 72.792969 39.910156 78.484375 38.238281 83.90625 C 37.140625 83.59375 36.050781 83.253906 34.96875 82.890625 Z M 41.371094 39.5625 C 38.882812 26.917969 40.535156 17.378906 44.691406 14.984375 C 49.121094 12.4375 58.914062 16.070312 69.238281 25.1875 C 69.898438 25.769531 70.5625 26.378906 71.226562 27.007812 C 67.378906 31.117188 63.578125 35.792969 59.945312 40.886719 C 53.71875 41.460938 47.761719 42.382812 42.28125 43.617188 C 41.941406 42.273438 41.640625 40.921875 41.371094 39.5625 Z M 98.476562 53.582031 C 97.183594 51.359375 95.839844 49.164062 94.453125 47 C 98.675781 47.53125 102.722656 48.234375 106.523438 49.097656 C 105.382812 52.734375 103.960938 56.535156 102.285156 60.433594 C 101.0625 58.125 99.792969 55.839844 98.476562 53.582031 Z M 75.191406 31.027344 C 77.796875 33.839844 80.410156 36.976562 82.980469 40.378906 C 77.769531 40.136719 72.546875 40.132812 67.332031 40.375 C 69.90625 37.003906 72.539062 33.871094 75.191406 31.027344 Z M 51.75 53.621094 C 50.453125 55.863281 49.207031 58.132812 48.015625 60.429688 C 46.367188 56.546875 44.957031 52.726562 43.808594 49.039062 C 47.585938 48.199219 51.613281 47.511719 55.8125 46.988281 C 54.40625 49.167969 53.050781 51.378906 51.75 53.621094 Z M 55.929688 87.226562 C 51.59375 86.746094 47.507812 86.09375 43.730469 85.277344 C 44.898438 81.523438 46.339844 77.625 48.019531 73.65625 C 49.21875 75.957031 50.46875 78.226562 51.773438 80.46875 C 53.105469 82.753906 54.492188 85.007812 55.929688 87.226562 Z M 75.347656 103.183594 C 72.664062 100.308594 69.992188 97.128906 67.378906 93.707031 C 69.914062 93.804688 72.5 93.855469 75.125 93.855469 C 77.824219 93.855469 80.492188 93.796875 83.117188 93.679688 C 80.539062 97.164062 77.9375 100.347656 75.347656 103.183594 Z M 102.339844 73.453125 C 104.109375 77.464844 105.601562 81.34375 106.785156 85.035156 C 102.945312 85.90625 98.804688 86.605469 94.4375 87.128906 C 95.835938 84.921875 97.191406 82.6875 98.5 80.429688 C 99.832031 78.132812 101.113281 75.804688 102.339844 73.453125 Z M 93.601562 77.621094 C 91.597656 81.082031 89.476562 84.480469 87.25 87.808594 C 83.320312 88.089844 79.261719 88.230469 75.125 88.230469 C 71.007812 88.230469 67 88.105469 63.140625 87.855469 C 60.855469 84.535156 58.695312 81.132812 56.667969 77.648438 C 54.652344 74.1875 52.769531 70.648438 51.019531 67.042969 C 52.765625 63.4375 54.640625 59.894531 56.652344 56.429688 C 58.664062 52.964844 60.804688 49.574219 63.070312 46.269531 C 67.007812 45.972656 71.046875 45.820312 75.125 45.820312 C 79.226562 45.820312 83.269531 45.976562 87.203125 46.273438 C 89.449219 49.574219 91.578125 52.953125 93.582031 56.402344 C 95.601562 59.859375 97.503906 63.382812 99.289062 66.964844 C 97.523438 70.582031 95.625 74.136719 93.601562 77.621094 Z M 105.269531 14.820312 C 109.703125 17.359375 111.425781 27.613281 108.640625 41.058594 C 108.457031 41.933594 108.257812 42.804688 108.046875 43.675781 C 102.554688 42.414062 96.589844 41.476562 90.34375 40.894531 C 86.707031 35.742188 82.9375 31.058594 79.152344 27.007812 C 80.144531 26.054688 81.160156 25.128906 82.195312 24.230469 C 91.972656 15.769531 101.105469 12.433594 105.269531 14.820312 Z M 105.269531 14.820312 "/>
<path style=" stroke:none;fill-rule:nonzero;fill:rgb(32.54902%,75.686275%,87.058824%);fill-opacity:1;" d="M 75.125 55.152344 C 81.65625 55.152344 86.949219 60.414062 86.949219 66.90625 C 86.949219 73.402344 81.65625 78.664062 75.125 78.664062 C 68.597656 78.664062 63.304688 73.402344 63.304688 66.90625 C 63.304688 60.414062 68.597656 55.152344 75.125 55.152344 "/>
</g>
</svg>
