<?xml version="1.0" encoding="UTF-8"?>
<svg xmlns="http://www.w3.org/2000/svg" xmlns:xlink="http://www.w3.org/1999/xlink" width="150pt" height="150pt" viewBox="0 0 150 150" version="1.1">
<g id="surface1">
<path style=" stroke:none;fill-rule:evenodd;fill:rgb(21.176471%,77.254902%,94.117647%);fill-opacity:1;" d="M 54.996094 0.00390625 C 46.703125 0.0078125 39.996094 6.722656 40 15 C 39.996094 23.273438 46.710938 29.988281 55.003906 29.996094 L 70.003906 29.996094 L 70.003906 15.003906 C 70.011719 6.730469 63.292969 0.015625 54.996094 0.00390625 C 55.003906 0.00390625 55.003906 0.00390625 54.996094 0.00390625 M 54.996094 40 L 15.003906 40 C 6.710938 40.007812 -0.0078125 46.722656 0 54.996094 C -0.0117188 63.273438 6.703125 69.988281 14.996094 70 L 54.996094 70 C 63.289062 69.992188 70.003906 63.277344 70 55.003906 C 70.003906 46.722656 63.289062 40.007812 54.996094 40 Z M 54.996094 40 "/>
<path style=" stroke:none;fill-rule:evenodd;fill:rgb(18.039216%,71.372549%,49.019608%);fill-opacity:1;" d="M 150 54.996094 C 150.007812 46.722656 143.289062 40.007812 134.996094 40 C 126.707031 40.007812 119.988281 46.722656 119.996094 54.996094 L 119.996094 70 L 134.996094 70 C 143.289062 69.992188 150.007812 63.277344 150 54.996094 Z M 110 54.996094 L 110 15 C 110.003906 6.730469 103.296875 0.015625 95.003906 0.00390625 C 86.710938 0.0078125 79.996094 6.722656 80 15 L 80 54.996094 C 79.988281 63.273438 86.707031 69.988281 94.996094 70 C 103.289062 69.992188 110.003906 63.277344 110 54.996094 Z M 110 54.996094 "/>
<path style=" stroke:none;fill-rule:evenodd;fill:rgb(92.54902%,69.803922%,18.039216%);fill-opacity:1;" d="M 94.996094 149.996094 C 103.289062 149.992188 110.003906 143.277344 110 135 C 110.003906 126.726562 103.289062 120.011719 94.996094 120.003906 L 79.996094 120.003906 L 79.996094 135 C 79.988281 143.269531 86.707031 149.984375 94.996094 149.996094 Z M 94.996094 109.992188 L 134.996094 109.992188 C 143.289062 109.988281 150.007812 103.269531 150 94.996094 C 150.011719 86.722656 143.296875 80.007812 135.003906 79.992188 L 95.003906 79.992188 C 86.710938 80 79.996094 86.714844 80 94.988281 C 79.996094 103.269531 86.707031 109.988281 94.996094 109.992188 Z M 94.996094 109.992188 "/>
<path style=" stroke:none;fill-rule:evenodd;fill:rgb(87.843137%,11.764706%,35.294118%);fill-opacity:1;" d="M 0 94.996094 C -0.0078125 103.269531 6.710938 109.988281 15.003906 109.992188 C 23.292969 109.988281 30.011719 103.269531 30.003906 94.996094 L 30.003906 80 L 15.003906 80 C 6.710938 80.007812 -0.0078125 86.722656 0 94.996094 Z M 40 94.996094 L 40 134.996094 C 39.988281 143.269531 46.703125 149.984375 54.996094 149.996094 C 63.289062 149.992188 70.003906 143.277344 70 135 L 70 95.007812 C 70.011719 86.734375 63.292969 80.019531 55.003906 80.007812 C 46.703125 80.007812 39.996094 86.722656 40 94.996094 C 40 94.996094 40 95.003906 40 94.996094 "/>
</g>
</svg>
